<mxfile host="app.diagrams.net" agent="Mozilla/5.0 (Macintosh; Intel Mac OS X 10_15_7) AppleWebKit/537.36 (KHTML, like Gecko) Chrome/131.0.0.0 Safari/537.36" version="26.0.5">
  <diagram name="Page-1" id="N3j8LdUv54xLBxClwja3">
    <mxGraphModel dx="948" dy="3356" grid="0" gridSize="10" guides="1" tooltips="1" connect="1" arrows="1" fold="1" page="0" pageScale="1" pageWidth="850" pageHeight="1100" math="0" shadow="0">
      <root>
        <mxCell id="0" />
        <mxCell id="1" parent="0" />
        <mxCell id="huNN_xjZESp3WeJYq-dp-1" value="Pizza" style="swimlane;fontStyle=0;childLayout=stackLayout;horizontal=1;startSize=26;fillColor=none;horizontalStack=0;resizeParent=1;resizeParentMax=0;resizeLast=0;collapsible=1;marginBottom=0;whiteSpace=wrap;html=1;" vertex="1" parent="1">
          <mxGeometry x="294" y="-2046" width="185" height="78" as="geometry" />
        </mxCell>
        <mxCell id="huNN_xjZESp3WeJYq-dp-2" value="GetDescription()" style="text;strokeColor=none;fillColor=none;align=left;verticalAlign=top;spacingLeft=4;spacingRight=4;overflow=hidden;rotatable=0;points=[[0,0.5],[1,0.5]];portConstraint=eastwest;whiteSpace=wrap;html=1;" vertex="1" parent="huNN_xjZESp3WeJYq-dp-1">
          <mxGeometry y="26" width="185" height="26" as="geometry" />
        </mxCell>
        <mxCell id="huNN_xjZESp3WeJYq-dp-3" value="Cost()" style="text;strokeColor=none;fillColor=none;align=left;verticalAlign=top;spacingLeft=4;spacingRight=4;overflow=hidden;rotatable=0;points=[[0,0.5],[1,0.5]];portConstraint=eastwest;whiteSpace=wrap;html=1;" vertex="1" parent="huNN_xjZESp3WeJYq-dp-1">
          <mxGeometry y="52" width="185" height="26" as="geometry" />
        </mxCell>
        <mxCell id="huNN_xjZESp3WeJYq-dp-5" value="ThickCrustPizza" style="swimlane;fontStyle=0;childLayout=stackLayout;horizontal=1;startSize=26;fillColor=none;horizontalStack=0;resizeParent=1;resizeParentMax=0;resizeLast=0;collapsible=1;marginBottom=0;whiteSpace=wrap;html=1;" vertex="1" parent="1">
          <mxGeometry x="326" y="-1808" width="140" height="78" as="geometry" />
        </mxCell>
        <mxCell id="huNN_xjZESp3WeJYq-dp-6" value="GetDescription()" style="text;strokeColor=none;fillColor=none;align=left;verticalAlign=top;spacingLeft=4;spacingRight=4;overflow=hidden;rotatable=0;points=[[0,0.5],[1,0.5]];portConstraint=eastwest;whiteSpace=wrap;html=1;" vertex="1" parent="huNN_xjZESp3WeJYq-dp-5">
          <mxGeometry y="26" width="140" height="26" as="geometry" />
        </mxCell>
        <mxCell id="huNN_xjZESp3WeJYq-dp-7" value="Cost()" style="text;strokeColor=none;fillColor=none;align=left;verticalAlign=top;spacingLeft=4;spacingRight=4;overflow=hidden;rotatable=0;points=[[0,0.5],[1,0.5]];portConstraint=eastwest;whiteSpace=wrap;html=1;" vertex="1" parent="huNN_xjZESp3WeJYq-dp-5">
          <mxGeometry y="52" width="140" height="26" as="geometry" />
        </mxCell>
        <mxCell id="huNN_xjZESp3WeJYq-dp-8" value="ThinCrustPizza" style="swimlane;fontStyle=0;childLayout=stackLayout;horizontal=1;startSize=26;fillColor=none;horizontalStack=0;resizeParent=1;resizeParentMax=0;resizeLast=0;collapsible=1;marginBottom=0;whiteSpace=wrap;html=1;" vertex="1" parent="1">
          <mxGeometry x="149" y="-1808" width="140" height="78" as="geometry" />
        </mxCell>
        <mxCell id="huNN_xjZESp3WeJYq-dp-9" value="GetDescription()" style="text;strokeColor=none;fillColor=none;align=left;verticalAlign=top;spacingLeft=4;spacingRight=4;overflow=hidden;rotatable=0;points=[[0,0.5],[1,0.5]];portConstraint=eastwest;whiteSpace=wrap;html=1;" vertex="1" parent="huNN_xjZESp3WeJYq-dp-8">
          <mxGeometry y="26" width="140" height="26" as="geometry" />
        </mxCell>
        <mxCell id="huNN_xjZESp3WeJYq-dp-10" value="Cost()" style="text;strokeColor=none;fillColor=none;align=left;verticalAlign=top;spacingLeft=4;spacingRight=4;overflow=hidden;rotatable=0;points=[[0,0.5],[1,0.5]];portConstraint=eastwest;whiteSpace=wrap;html=1;" vertex="1" parent="huNN_xjZESp3WeJYq-dp-8">
          <mxGeometry y="52" width="140" height="26" as="geometry" />
        </mxCell>
        <mxCell id="huNN_xjZESp3WeJYq-dp-11" value="ThinCrustPizzaWithExtraCheese" style="swimlane;fontStyle=0;childLayout=stackLayout;horizontal=1;startSize=26;fillColor=none;horizontalStack=0;resizeParent=1;resizeParentMax=0;resizeLast=0;collapsible=1;marginBottom=0;whiteSpace=wrap;html=1;" vertex="1" parent="1">
          <mxGeometry x="506" y="-1808" width="202" height="78" as="geometry" />
        </mxCell>
        <mxCell id="huNN_xjZESp3WeJYq-dp-12" value="GetDescription()" style="text;strokeColor=none;fillColor=none;align=left;verticalAlign=top;spacingLeft=4;spacingRight=4;overflow=hidden;rotatable=0;points=[[0,0.5],[1,0.5]];portConstraint=eastwest;whiteSpace=wrap;html=1;" vertex="1" parent="huNN_xjZESp3WeJYq-dp-11">
          <mxGeometry y="26" width="202" height="26" as="geometry" />
        </mxCell>
        <mxCell id="huNN_xjZESp3WeJYq-dp-13" value="Cost()" style="text;strokeColor=none;fillColor=none;align=left;verticalAlign=top;spacingLeft=4;spacingRight=4;overflow=hidden;rotatable=0;points=[[0,0.5],[1,0.5]];portConstraint=eastwest;whiteSpace=wrap;html=1;" vertex="1" parent="huNN_xjZESp3WeJYq-dp-11">
          <mxGeometry y="52" width="202" height="26" as="geometry" />
        </mxCell>
        <mxCell id="huNN_xjZESp3WeJYq-dp-15" style="edgeStyle=none;curved=1;rounded=0;orthogonalLoop=1;jettySize=auto;html=1;entryX=0.063;entryY=1.109;entryDx=0;entryDy=0;entryPerimeter=0;fontSize=12;startSize=8;endSize=8;" edge="1" parent="1" source="huNN_xjZESp3WeJYq-dp-8" target="huNN_xjZESp3WeJYq-dp-3">
          <mxGeometry relative="1" as="geometry" />
        </mxCell>
        <mxCell id="huNN_xjZESp3WeJYq-dp-16" style="edgeStyle=none;curved=1;rounded=0;orthogonalLoop=1;jettySize=auto;html=1;entryX=0.554;entryY=1.021;entryDx=0;entryDy=0;entryPerimeter=0;fontSize=12;startSize=8;endSize=8;" edge="1" parent="1" source="huNN_xjZESp3WeJYq-dp-5" target="huNN_xjZESp3WeJYq-dp-3">
          <mxGeometry relative="1" as="geometry" />
        </mxCell>
        <mxCell id="huNN_xjZESp3WeJYq-dp-17" style="edgeStyle=none;curved=1;rounded=0;orthogonalLoop=1;jettySize=auto;html=1;entryX=0.87;entryY=1.109;entryDx=0;entryDy=0;entryPerimeter=0;fontSize=12;startSize=8;endSize=8;" edge="1" parent="1" source="huNN_xjZESp3WeJYq-dp-11" target="huNN_xjZESp3WeJYq-dp-3">
          <mxGeometry relative="1" as="geometry" />
        </mxCell>
        <mxCell id="huNN_xjZESp3WeJYq-dp-18" value="Pizza" style="swimlane;fontStyle=0;childLayout=stackLayout;horizontal=1;startSize=26;fillColor=none;horizontalStack=0;resizeParent=1;resizeParentMax=0;resizeLast=0;collapsible=1;marginBottom=0;whiteSpace=wrap;html=1;" vertex="1" parent="1">
          <mxGeometry x="682" y="-1609" width="185" height="78" as="geometry" />
        </mxCell>
        <mxCell id="huNN_xjZESp3WeJYq-dp-19" value="GetDescription()" style="text;strokeColor=none;fillColor=none;align=left;verticalAlign=top;spacingLeft=4;spacingRight=4;overflow=hidden;rotatable=0;points=[[0,0.5],[1,0.5]];portConstraint=eastwest;whiteSpace=wrap;html=1;" vertex="1" parent="huNN_xjZESp3WeJYq-dp-18">
          <mxGeometry y="26" width="185" height="26" as="geometry" />
        </mxCell>
        <mxCell id="huNN_xjZESp3WeJYq-dp-20" value="Cost()" style="text;strokeColor=none;fillColor=none;align=left;verticalAlign=top;spacingLeft=4;spacingRight=4;overflow=hidden;rotatable=0;points=[[0,0.5],[1,0.5]];portConstraint=eastwest;whiteSpace=wrap;html=1;" vertex="1" parent="huNN_xjZESp3WeJYq-dp-18">
          <mxGeometry y="52" width="185" height="26" as="geometry" />
        </mxCell>
        <mxCell id="huNN_xjZESp3WeJYq-dp-21" value="ThickCrustPizza" style="swimlane;fontStyle=0;childLayout=stackLayout;horizontal=1;startSize=26;fillColor=none;horizontalStack=0;resizeParent=1;resizeParentMax=0;resizeLast=0;collapsible=1;marginBottom=0;whiteSpace=wrap;html=1;" vertex="1" parent="1">
          <mxGeometry x="803" y="-1378" width="140" height="78" as="geometry" />
        </mxCell>
        <mxCell id="huNN_xjZESp3WeJYq-dp-22" value="GetDescription()" style="text;strokeColor=none;fillColor=none;align=left;verticalAlign=top;spacingLeft=4;spacingRight=4;overflow=hidden;rotatable=0;points=[[0,0.5],[1,0.5]];portConstraint=eastwest;whiteSpace=wrap;html=1;" vertex="1" parent="huNN_xjZESp3WeJYq-dp-21">
          <mxGeometry y="26" width="140" height="26" as="geometry" />
        </mxCell>
        <mxCell id="huNN_xjZESp3WeJYq-dp-23" value="Cost()" style="text;strokeColor=none;fillColor=none;align=left;verticalAlign=top;spacingLeft=4;spacingRight=4;overflow=hidden;rotatable=0;points=[[0,0.5],[1,0.5]];portConstraint=eastwest;whiteSpace=wrap;html=1;" vertex="1" parent="huNN_xjZESp3WeJYq-dp-21">
          <mxGeometry y="52" width="140" height="26" as="geometry" />
        </mxCell>
        <mxCell id="huNN_xjZESp3WeJYq-dp-24" value="ThinCrustPizza" style="swimlane;fontStyle=0;childLayout=stackLayout;horizontal=1;startSize=26;fillColor=none;horizontalStack=0;resizeParent=1;resizeParentMax=0;resizeLast=0;collapsible=1;marginBottom=0;whiteSpace=wrap;html=1;" vertex="1" parent="1">
          <mxGeometry x="645" y="-1378" width="140" height="78" as="geometry" />
        </mxCell>
        <mxCell id="huNN_xjZESp3WeJYq-dp-25" value="GetDescription()" style="text;strokeColor=none;fillColor=none;align=left;verticalAlign=top;spacingLeft=4;spacingRight=4;overflow=hidden;rotatable=0;points=[[0,0.5],[1,0.5]];portConstraint=eastwest;whiteSpace=wrap;html=1;" vertex="1" parent="huNN_xjZESp3WeJYq-dp-24">
          <mxGeometry y="26" width="140" height="26" as="geometry" />
        </mxCell>
        <mxCell id="huNN_xjZESp3WeJYq-dp-26" value="Cost()" style="text;strokeColor=none;fillColor=none;align=left;verticalAlign=top;spacingLeft=4;spacingRight=4;overflow=hidden;rotatable=0;points=[[0,0.5],[1,0.5]];portConstraint=eastwest;whiteSpace=wrap;html=1;" vertex="1" parent="huNN_xjZESp3WeJYq-dp-24">
          <mxGeometry y="52" width="140" height="26" as="geometry" />
        </mxCell>
        <mxCell id="huNN_xjZESp3WeJYq-dp-33" value="ToppingDecorator" style="swimlane;fontStyle=0;childLayout=stackLayout;horizontal=1;startSize=26;fillColor=none;horizontalStack=0;resizeParent=1;resizeParentMax=0;resizeLast=0;collapsible=1;marginBottom=0;whiteSpace=wrap;html=1;" vertex="1" parent="1">
          <mxGeometry x="353" y="-1613" width="185" height="78" as="geometry" />
        </mxCell>
        <mxCell id="huNN_xjZESp3WeJYq-dp-34" value="GetDescription()" style="text;strokeColor=none;fillColor=none;align=left;verticalAlign=top;spacingLeft=4;spacingRight=4;overflow=hidden;rotatable=0;points=[[0,0.5],[1,0.5]];portConstraint=eastwest;whiteSpace=wrap;html=1;" vertex="1" parent="huNN_xjZESp3WeJYq-dp-33">
          <mxGeometry y="26" width="185" height="26" as="geometry" />
        </mxCell>
        <mxCell id="huNN_xjZESp3WeJYq-dp-35" value="Cost()" style="text;strokeColor=none;fillColor=none;align=left;verticalAlign=top;spacingLeft=4;spacingRight=4;overflow=hidden;rotatable=0;points=[[0,0.5],[1,0.5]];portConstraint=eastwest;whiteSpace=wrap;html=1;" vertex="1" parent="huNN_xjZESp3WeJYq-dp-33">
          <mxGeometry y="52" width="185" height="26" as="geometry" />
        </mxCell>
        <mxCell id="huNN_xjZESp3WeJYq-dp-36" style="edgeStyle=none;curved=1;rounded=0;orthogonalLoop=1;jettySize=auto;html=1;entryX=0.985;entryY=0.731;entryDx=0;entryDy=0;entryPerimeter=0;fontSize=12;startSize=8;endSize=8;" edge="1" parent="1" source="huNN_xjZESp3WeJYq-dp-18" target="huNN_xjZESp3WeJYq-dp-34">
          <mxGeometry relative="1" as="geometry" />
        </mxCell>
        <mxCell id="huNN_xjZESp3WeJYq-dp-40" value="" style="endArrow=diamondThin;endFill=1;endSize=24;html=1;rounded=0;fontSize=12;curved=1;entryX=1;entryY=0.25;entryDx=0;entryDy=0;" edge="1" parent="1" target="huNN_xjZESp3WeJYq-dp-33">
          <mxGeometry width="160" relative="1" as="geometry">
            <mxPoint x="682" y="-1594" as="sourcePoint" />
            <mxPoint x="574" y="-1594" as="targetPoint" />
          </mxGeometry>
        </mxCell>
        <mxCell id="huNN_xjZESp3WeJYq-dp-41" style="edgeStyle=none;curved=1;rounded=0;orthogonalLoop=1;jettySize=auto;html=1;entryX=0.396;entryY=1.023;entryDx=0;entryDy=0;entryPerimeter=0;fontSize=12;startSize=8;endSize=8;" edge="1" parent="1" source="huNN_xjZESp3WeJYq-dp-24" target="huNN_xjZESp3WeJYq-dp-20">
          <mxGeometry relative="1" as="geometry" />
        </mxCell>
        <mxCell id="huNN_xjZESp3WeJYq-dp-42" style="edgeStyle=none;curved=1;rounded=0;orthogonalLoop=1;jettySize=auto;html=1;entryX=0.664;entryY=1.023;entryDx=0;entryDy=0;entryPerimeter=0;fontSize=12;startSize=8;endSize=8;" edge="1" parent="1" source="huNN_xjZESp3WeJYq-dp-21" target="huNN_xjZESp3WeJYq-dp-20">
          <mxGeometry relative="1" as="geometry" />
        </mxCell>
        <mxCell id="huNN_xjZESp3WeJYq-dp-43" value="Cheese" style="swimlane;fontStyle=0;childLayout=stackLayout;horizontal=1;startSize=26;fillColor=none;horizontalStack=0;resizeParent=1;resizeParentMax=0;resizeLast=0;collapsible=1;marginBottom=0;whiteSpace=wrap;html=1;" vertex="1" parent="1">
          <mxGeometry x="278" y="-1375" width="140" height="78" as="geometry" />
        </mxCell>
        <mxCell id="huNN_xjZESp3WeJYq-dp-44" value="GetDescription()" style="text;strokeColor=none;fillColor=none;align=left;verticalAlign=top;spacingLeft=4;spacingRight=4;overflow=hidden;rotatable=0;points=[[0,0.5],[1,0.5]];portConstraint=eastwest;whiteSpace=wrap;html=1;" vertex="1" parent="huNN_xjZESp3WeJYq-dp-43">
          <mxGeometry y="26" width="140" height="26" as="geometry" />
        </mxCell>
        <mxCell id="huNN_xjZESp3WeJYq-dp-45" value="Cost()" style="text;strokeColor=none;fillColor=none;align=left;verticalAlign=top;spacingLeft=4;spacingRight=4;overflow=hidden;rotatable=0;points=[[0,0.5],[1,0.5]];portConstraint=eastwest;whiteSpace=wrap;html=1;" vertex="1" parent="huNN_xjZESp3WeJYq-dp-43">
          <mxGeometry y="52" width="140" height="26" as="geometry" />
        </mxCell>
        <mxCell id="huNN_xjZESp3WeJYq-dp-46" value="Olives" style="swimlane;fontStyle=0;childLayout=stackLayout;horizontal=1;startSize=26;fillColor=none;horizontalStack=0;resizeParent=1;resizeParentMax=0;resizeLast=0;collapsible=1;marginBottom=0;whiteSpace=wrap;html=1;" vertex="1" parent="1">
          <mxGeometry x="451" y="-1375" width="140" height="78" as="geometry" />
        </mxCell>
        <mxCell id="huNN_xjZESp3WeJYq-dp-47" value="GetDescription()" style="text;strokeColor=none;fillColor=none;align=left;verticalAlign=top;spacingLeft=4;spacingRight=4;overflow=hidden;rotatable=0;points=[[0,0.5],[1,0.5]];portConstraint=eastwest;whiteSpace=wrap;html=1;" vertex="1" parent="huNN_xjZESp3WeJYq-dp-46">
          <mxGeometry y="26" width="140" height="26" as="geometry" />
        </mxCell>
        <mxCell id="huNN_xjZESp3WeJYq-dp-48" value="Cost()" style="text;strokeColor=none;fillColor=none;align=left;verticalAlign=top;spacingLeft=4;spacingRight=4;overflow=hidden;rotatable=0;points=[[0,0.5],[1,0.5]];portConstraint=eastwest;whiteSpace=wrap;html=1;" vertex="1" parent="huNN_xjZESp3WeJYq-dp-46">
          <mxGeometry y="52" width="140" height="26" as="geometry" />
        </mxCell>
        <mxCell id="huNN_xjZESp3WeJYq-dp-49" style="edgeStyle=none;curved=1;rounded=0;orthogonalLoop=1;jettySize=auto;html=1;entryX=0.332;entryY=1.085;entryDx=0;entryDy=0;entryPerimeter=0;fontSize=12;startSize=8;endSize=8;" edge="1" parent="1" source="huNN_xjZESp3WeJYq-dp-43" target="huNN_xjZESp3WeJYq-dp-35">
          <mxGeometry relative="1" as="geometry" />
        </mxCell>
        <mxCell id="huNN_xjZESp3WeJYq-dp-50" style="edgeStyle=none;curved=1;rounded=0;orthogonalLoop=1;jettySize=auto;html=1;entryX=0.522;entryY=0.962;entryDx=0;entryDy=0;entryPerimeter=0;fontSize=12;startSize=8;endSize=8;" edge="1" parent="1" source="huNN_xjZESp3WeJYq-dp-46" target="huNN_xjZESp3WeJYq-dp-35">
          <mxGeometry relative="1" as="geometry" />
        </mxCell>
      </root>
    </mxGraphModel>
  </diagram>
</mxfile>
